<svg data-v-5f19e91b="" xmlns="http://www.w3.org/2000/svg" width="362" height="79" viewBox="0 0 362 79"><!----> <!----> <!----> <g data-v-5f19e91b="" id="35a3539b-f954-688f-97df-e2db0d659adc" fill="white" transform="matrix(5.597014785954833,0,0,5.597014785954833,104.47018372833301,-30.258955976099443)"><path d="M7.75 10.27L6.35 10.52L6.35 10.52Q5.91 8.42 4.49 8.42L4.49 8.42L4.49 8.42Q2.99 8.42 2.39 10.12L2.39 10.12L2.39 10.12Q2.06 11.07 2.06 12.35L2.06 12.35L2.06 12.35Q2.06 15.43 3.36 16.18L3.36 16.18L3.36 16.18Q3.75 16.40 4.18 16.40L4.18 16.40L4.18 16.40Q4.61 16.40 4.90 16.31L4.90 16.31L4.90 16.31Q5.20 16.23 5.40 16.10L5.40 16.10L5.40 16.10Q5.61 15.96 5.76 15.75L5.76 15.75L5.76 15.75Q5.91 15.54 5.99 15.33L5.99 15.33L5.99 15.33Q6.07 15.11 6.12 14.82L6.12 14.82L6.12 14.82Q6.19 14.38 6.21 13.75L6.21 13.75L4.22 13.75L4.22 12.37L7.81 12.37L7.81 17.60L6.49 17.60L6.49 16.78L6.49 16.78Q6.05 17.31 5.53 17.53L5.53 17.53L5.53 17.53Q4.97 17.77 4.24 17.77L4.24 17.77L4.24 17.77Q3.51 17.77 2.90 17.48L2.90 17.48L2.90 17.48Q2.29 17.18 1.85 16.66L1.85 16.66L1.85 16.66Q1.40 16.14 1.07 15.45L1.07 15.45L1.07 15.45Q0.42 14.08 0.42 12.34L0.42 12.34L0.42 12.34Q0.42 10.68 1.05 9.36L1.05 9.36L1.05 9.36Q1.74 7.90 2.95 7.35L2.95 7.35L2.95 7.35Q3.62 7.05 4.23 7.05L4.23 7.05L4.23 7.05Q4.84 7.05 5.21 7.13L5.21 7.13L5.21 7.13Q5.57 7.22 5.95 7.44L5.95 7.44L5.95 7.44Q6.33 7.66 6.64 8.02L6.64 8.02L6.64 8.02Q7.31 8.79 7.75 10.27L7.75 10.27ZM10.81 17.60L9.35 17.60L9.35 10.38L10.81 10.38L10.81 17.60ZM10.91 9.75L9.25 9.75L9.25 8.09L10.91 8.09L10.91 9.75ZM15.06 7.14L15.06 7.14L15.06 7.14Q15.57 7.14 15.60 7.24L15.60 7.24L15.60 8.46L15.13 8.46L15.13 8.46Q14.58 8.47 14.41 8.59L14.41 8.59L14.41 8.59Q14.11 8.82 14.11 9.15L14.11 9.15L14.11 10.38L15.60 10.38L15.60 11.62L14.11 11.62L14.11 17.60L12.65 17.60L12.65 11.62L11.61 11.62L11.61 10.38L12.65 10.38L12.65 8.84L12.65 8.84Q12.65 7.14 15.06 7.14ZM16.17 13.70L16.17 13.70L16.17 13.70Q16.06 13.06 16.06 12.40L16.06 12.40L16.06 12.40Q16.06 11.74 16.17 11.11L16.17 11.11L16.17 11.11Q16.27 10.47 16.47 9.87L16.47 9.87L16.47 9.87Q16.67 9.26 17.00 8.75L17.00 8.75L17.00 8.75Q17.32 8.24 17.74 7.86L17.74 7.86L17.74 7.86Q18.63 7.05 19.95 7.05L19.95 7.05L19.95 7.05Q21.62 7.05 22.59 8.72L22.59 8.72L22.59 8.72Q23.06 9.54 23.23 10.40L23.23 10.40L23.23 10.40L21.81 10.79L21.81 10.79Q21.70 10.06 21.55 9.72L21.55 9.72L21.55 9.72Q21.40 9.38 21.25 9.15L21.25 9.15L21.25 9.15Q21.10 8.92 20.92 8.77L20.92 8.77L20.92 8.77Q20.49 8.42 19.96 8.42L19.96 8.42L19.96 8.42Q19.42 8.42 19.04 8.66L19.04 8.66L19.04 8.66Q18.66 8.91 18.41 9.30L18.41 9.30L18.41 9.30Q18.16 9.69 18.00 10.22L18.00 10.22L18.00 10.22Q17.70 11.19 17.70 12.41L17.70 12.41L17.70 12.41Q17.70 15.63 19.23 16.26L19.23 16.26L19.23 16.26Q19.56 16.40 19.93 16.40L19.93 16.40L19.93 16.40Q20.30 16.40 20.59 16.30L20.59 16.30L20.59 16.30Q20.88 16.21 21.08 16.05L21.08 16.05L21.08 16.05Q21.27 15.90 21.43 15.69L21.43 15.69L21.43 15.69Q21.58 15.48 21.67 15.26L21.67 15.26L21.67 15.26Q21.77 15.05 21.82 14.82L21.82 14.82L21.82 14.82Q21.92 14.42 21.92 14.08L21.92 14.08L23.45 14.29L23.45 14.29Q23.14 15.61 22.37 16.57L22.37 16.57L22.37 16.57Q21.40 17.77 19.93 17.77L19.93 17.77L19.93 17.77Q18.13 17.77 17.03 16.06L17.03 16.06L17.03 16.06Q16.41 15.09 16.17 13.70ZM25.91 17.60L24.45 17.60L24.45 10.38L25.91 10.38L25.91 17.60ZM26.00 9.75L24.34 9.75L24.34 8.09L26.00 8.09L26.00 9.75ZM27.88 11.62L26.80 11.62L26.80 10.38L27.88 10.38L27.88 7.75L29.34 7.75L29.34 10.38L30.85 10.38L30.85 11.62L29.34 11.62L29.34 15.49L29.34 15.49Q29.34 16.07 29.55 16.29L29.55 16.29L29.55 16.29Q29.76 16.50 30.25 16.50L30.25 16.50L30.25 16.50Q30.45 16.50 30.65 16.47L30.65 16.47L30.65 16.47Q30.85 16.45 30.85 16.44L30.85 16.44L30.85 17.47L30.85 17.47Q30.48 17.64 30.28 17.69L30.28 17.69L30.28 17.69Q30.08 17.74 29.79 17.74L29.79 17.74L29.79 17.74Q29.50 17.74 29.36 17.73L29.36 17.73L29.36 17.73Q29.22 17.73 29.02 17.68L29.02 17.68L29.02 17.68Q28.81 17.64 28.67 17.57L28.67 17.57L28.67 17.57Q28.52 17.50 28.36 17.36L28.36 17.36L28.36 17.36Q28.21 17.23 28.10 17.04L28.10 17.04L28.10 17.04Q27.88 16.60 27.88 15.90L27.88 15.90L27.88 11.62ZM33.07 17.60L31.61 17.60L31.61 10.38L33.07 10.38L33.07 17.60ZM33.17 9.75L31.51 9.75L31.51 8.09L33.17 8.09L33.17 9.75ZM35.79 13.14L35.79 13.14L38.32 13.14L38.32 13.14Q38.32 12.61 38.13 12.22L38.13 12.22L38.13 12.22Q37.78 11.50 37.15 11.50L37.15 11.50L37.15 11.50Q36.77 11.50 36.49 11.67L36.49 11.67L36.49 11.67Q36.20 11.83 36.06 12.10L36.06 12.10L36.06 12.10Q35.79 12.60 35.79 13.14ZM34.64 16.20L34.64 16.20L34.64 16.20Q34.43 15.73 34.34 15.23L34.34 15.23L34.34 15.23Q34.25 14.74 34.25 13.98L34.25 13.98L34.25 13.98Q34.25 13.23 34.43 12.52L34.43 12.52L34.43 12.52Q34.61 11.81 34.89 11.39L34.89 11.39L34.89 11.39Q35.17 10.96 35.57 10.71L35.57 10.71L35.57 10.71Q36.24 10.26 37.16 10.26L37.16 10.26L37.16 10.26Q38.02 10.26 38.66 10.77L38.66 10.77L38.66 10.77Q39.87 11.74 39.81 14.38L39.81 14.38L35.72 14.38L35.72 14.38Q35.72 15.76 36.45 16.24L36.45 16.24L36.45 16.24Q36.83 16.48 37.24 16.48L37.24 16.48L37.24 16.48Q37.65 16.48 37.93 16.38L37.93 16.38L37.93 16.38Q38.20 16.28 38.36 16.15L38.36 16.15L38.36 16.15Q38.53 16.02 38.66 15.85L38.66 15.85L38.66 15.85Q38.85 15.61 38.92 15.44L38.92 15.44L39.85 16.04L39.85 16.04Q39.34 16.92 38.77 17.29L38.77 17.29L38.77 17.29Q38.13 17.72 37.37 17.72L37.37 17.72L37.37 17.72Q36.61 17.72 36.07 17.52L36.07 17.52L36.07 17.52Q35.53 17.32 35.19 16.99L35.19 16.99L35.19 16.99Q34.86 16.67 34.64 16.20ZM40.71 16.15L40.71 16.15L41.72 15.53L41.72 15.53Q41.96 15.87 42.16 16.08L42.16 16.08L42.16 16.08Q42.65 16.56 43.39 16.56L43.39 16.56L43.39 16.56Q43.98 16.56 44.24 16.31L44.24 16.31L44.24 16.31Q44.47 16.08 44.47 15.63L44.47 15.63L44.47 15.63Q44.47 15.11 44.13 14.85L44.13 14.85L44.13 14.85Q43.83 14.62 43.54 14.54L43.54 14.54L42.90 14.36L42.90 14.36Q41.78 14.04 41.29 13.51L41.29 13.51L41.29 13.51Q40.79 12.97 40.79 12.08L40.79 12.08L40.79 12.08Q40.79 11.32 41.41 10.81L41.41 10.81L41.41 10.81Q42.07 10.26 43.29 10.26L43.29 10.26L43.29 10.26Q44.39 10.26 45.19 11.01L45.19 11.01L45.19 11.01Q45.53 11.33 45.62 11.55L45.62 11.55L44.77 12.22L44.77 12.22Q44.29 11.64 43.81 11.50L43.81 11.50L43.81 11.50Q43.57 11.43 43.17 11.43L43.17 11.43L43.17 11.43Q42.77 11.43 42.48 11.63L42.48 11.63L42.48 11.63Q42.20 11.84 42.20 12.24L42.20 12.24L42.20 12.24Q42.20 12.69 42.60 12.95L42.60 12.95L42.60 12.95Q42.96 13.17 43.32 13.28L43.32 13.28L43.93 13.45L43.93 13.45Q45.38 13.86 45.73 14.84L45.73 14.84L45.73 14.84Q45.88 15.24 45.88 15.78L45.88 15.78L45.88 15.78Q45.88 16.32 45.54 16.78L45.54 16.78L45.54 16.78Q45.20 17.23 44.65 17.47L44.65 17.47L44.65 17.47Q44.09 17.72 43.53 17.72L43.53 17.72L43.53 17.72Q42.96 17.72 42.60 17.65L42.60 17.65L42.60 17.65Q42.23 17.58 41.89 17.41L41.89 17.41L41.89 17.41Q41.23 17.08 40.71 16.15Z"></path></g> <!----> <g data-v-5f19e91b="" id="a90bc292-5289-e998-9516-402243cbab98" transform="matrix(0.9333333333333333,0,0,0.9333333333333333,-10.63883164723714,-4.799999999999997)" stroke="none" fill="white"><path d="M103.3 16.316c-2.864-3.864-9.612-3.644-18.136-0.812-7.244-5.932-16.496-9.504-26.572-9.504-23.16 0-42 18.84-42 42 0 5.288 1.024 10.336 2.816 15.004-6.62 8.46-9.78 15.992-6.568 20.336 1.464 1.968 3.948 2.96 7.4 2.96 0.708 0 1.456-0.040 2.248-0.124 1.096-0.116 1.896-1.1 1.776-2.2s-1.076-1.892-2.2-1.776c-3.040 0.308-5.176-0.12-6.012-1.248-1.504-2.032 0.264-7.064 5.208-13.796 6.976 13.544 21.076 22.844 37.332 22.844 23.16 0 42-18.84 42-42 0-11.424-4.6-21.788-12.028-29.368 6.108-1.752 10.228-1.68 11.52 0.064 0.96 1.3 0.4 3.612-0.244 5.324-0.392 1.032 0.136 2.184 1.168 2.576 1.044 0.38 2.188-0.132 2.576-1.172 1.44-3.84 1.344-6.9-0.284-9.108zM89.384 25.824c4.144 5.74 6.712 12.664 7.104 20.168h-16.016c-0.268-7.064-1.904-13.864-4.704-20h12.82c0.284 0 0.556-0.064 0.796-0.168zM89.392 70.164c-0.248-0.104-0.516-0.172-0.8-0.172h-12.796c2.788-6.14 4.42-12.936 4.68-20h16.016c-0.392 7.508-2.956 14.432-7.1 20.172zM58.592 85.264c-4.16-3-7.728-6.824-10.556-11.272h21.104c-2.824 4.448-6.392 8.272-10.548 11.272zM45.72 69.992c-3.024-6.028-4.736-12.888-5.020-20h35.776c-0.284 7.112-1.996 13.972-5.020 20h-25.736zM27.796 25.824c0.244 0.104 0.512 0.168 0.796 0.168h12.816c-2.704 5.92-4.308 12.464-4.66 19.26-0.284 0.248-0.576 0.488-0.86 0.74h-15.196c0.396-7.504 2.964-14.428 7.104-20.168zM58.592 10.772c4.14 2.988 7.7 6.792 10.524 11.22h-21.052c2.824-4.424 6.384-8.232 10.528-11.22zM71.432 25.992c3.032 6.024 4.752 12.884 5.044 20h-34.444c2.596-2.152 5.368-4.34 8.348-6.548 7.568-5.608 14.644-10.040 20.984-13.452h0.068zM63.352 25.992c-5.176 3.088-10.392 6.556-15.36 10.236-2.364 1.752-4.692 3.58-6.976 5.44 0.712-5.56 2.32-10.88 4.732-15.676h17.604zM64.692 10.536c5.912 0.96 11.356 3.272 16.024 6.628-2.496 1.008-5.088 2.188-7.752 3.524-2.312-3.788-5.064-7.232-8.272-10.152zM52.488 10.536c-3.572 3.252-6.58 7.148-9.028 11.456h-12.496c5.604-5.956 13.096-10.084 21.524-11.456zM20.692 49.992h10.808c-3.352 3.156-6.452 6.336-9.148 9.436-0.948-3-1.492-6.172-1.66-9.436zM36.736 50.556c0.324 6.86 1.932 13.46 4.648 19.436h-12.792c-0.288 0-0.56 0.068-0.804 0.172-1.468-2.036-2.744-4.216-3.788-6.524 3.288-3.98 7.528-8.404 12.736-13.084zM30.948 73.992h12.484c2.444 4.308 5.448 8.212 9.012 11.464-8.416-1.376-15.896-5.512-21.496-11.464zM64.736 85.456c3.564-3.252 6.568-7.156 9.012-11.464h12.488c-5.6 5.952-13.080 10.088-21.5 11.464zM86.22 21.992h-6.732c1.664-0.736 3.256-1.388 4.756-1.944 0.684 0.628 1.344 1.272 1.976 1.944z"></path></g></svg>